<svg width="152" height="34" viewBox="0 0 152 34" fill="none" xmlns="http://www.w3.org/2000/svg">
<mask id="mask0_141_352" style="mask-type:alpha" maskUnits="userSpaceOnUse" x="0" y="0" width="152" height="34">
<path d="M137 0H144.33L152 17H144.67L137 0Z" fill="url(#paint0_linear_141_352)"/>
<path d="M137 34H144.33L152 17H144.67L137 34Z" fill="url(#paint1_linear_141_352)"/>
<path d="M15 0H7.67045L0 17H7.32955L15 0Z" fill="url(#paint2_linear_141_352)"/>
<path d="M15 34H7.67045L0 17H7.32955L15 34Z" fill="url(#paint3_linear_141_352)"/>
<path d="M19.8902 4.2C20.0955 4.2 20.1982 4.30267 20.1982 4.508V10.094C20.1982 10.4673 20.2262 10.78 20.2822 11.032C20.3475 11.2747 20.4502 11.4707 20.5902 11.62C20.7302 11.76 20.9168 11.8627 21.1502 11.928C21.3928 11.984 21.6962 12.012 22.0602 12.012H27.7302C27.9355 12.012 28.0382 12.1147 28.0382 12.32V13.692C28.0382 13.8973 27.9355 14 27.7302 14H21.9762C21.2668 14 20.6648 13.9347 20.1702 13.804C19.6755 13.6733 19.2695 13.4633 18.9522 13.174C18.6442 12.8753 18.4155 12.4927 18.2662 12.026C18.1262 11.55 18.0562 10.976 18.0562 10.304V4.508C18.0562 4.30267 18.1635 4.2 18.3782 4.2H19.8902ZM30.7684 6.314C30.9737 6.314 31.0764 6.42133 31.0764 6.636V10.682C31.0764 10.9807 31.095 11.228 31.1324 11.424C31.1697 11.62 31.2397 11.7787 31.3424 11.9C31.445 12.012 31.5897 12.096 31.7764 12.152C31.963 12.1987 32.2104 12.222 32.5184 12.222H36.1164C36.4244 12.222 36.6764 12.1987 36.8724 12.152C37.0684 12.096 37.2224 12.012 37.3344 11.9C37.4557 11.7787 37.5397 11.62 37.5864 11.424C37.633 11.228 37.6564 10.9807 37.6564 10.682V6.636C37.6564 6.42133 37.759 6.314 37.9644 6.314H39.3364C39.5417 6.314 39.6444 6.42133 39.6444 6.636V11.172C39.6444 11.676 39.5884 12.11 39.4764 12.474C39.3644 12.8287 39.1777 13.1227 38.9164 13.356C38.6644 13.58 38.3237 13.7433 37.8944 13.846C37.465 13.9487 36.9377 14 36.3124 14H32.4064C31.7717 14 31.2397 13.9487 30.8104 13.846C30.3904 13.7433 30.0497 13.58 29.7884 13.356C29.5364 13.1227 29.3544 12.8287 29.2424 12.474C29.1304 12.11 29.0744 11.676 29.0744 11.172V6.636C29.0744 6.42133 29.1817 6.314 29.3964 6.314H30.7684ZM50.004 6.314C50.172 6.314 50.256 6.398 50.256 6.566V7.742C50.256 7.91 50.172 7.994 50.004 7.994H44.572C44.264 7.994 44.012 8.022 43.816 8.078C43.62 8.12467 43.466 8.20867 43.354 8.33C43.242 8.442 43.1627 8.60067 43.116 8.806C43.0694 9.002 43.046 9.24467 43.046 9.534V10.78C43.046 11.0787 43.0694 11.326 43.116 11.522C43.1627 11.718 43.242 11.8767 43.354 11.998C43.466 12.11 43.62 12.194 43.816 12.25C44.012 12.2967 44.264 12.32 44.572 12.32H50.004C50.172 12.32 50.256 12.404 50.256 12.572V13.748C50.256 13.916 50.172 14 50.004 14H44.376C43.7414 14 43.2094 13.9487 42.78 13.846C42.36 13.7433 42.0194 13.58 41.758 13.356C41.506 13.1227 41.324 12.8287 41.212 12.474C41.1 12.11 41.044 11.676 41.044 11.172V9.156C41.044 8.652 41.1 8.22267 41.212 7.868C41.324 7.504 41.506 7.21 41.758 6.986C42.0194 6.75267 42.36 6.58467 42.78 6.482C43.2094 6.37 43.7414 6.314 44.376 6.314H50.004ZM57.7953 6.314C58.4206 6.314 58.9479 6.37 59.3773 6.482C59.8066 6.58467 60.1473 6.75267 60.3993 6.986C60.6606 7.21 60.8473 7.504 60.9593 7.868C61.0713 8.22267 61.1273 8.652 61.1273 9.156V12.88C61.1273 13.104 61.1086 13.2907 61.0713 13.44C61.0433 13.58 60.9873 13.692 60.9033 13.776C60.8286 13.86 60.7259 13.9207 60.5953 13.958C60.4646 13.986 60.2966 14 60.0913 14H53.4273C53.0166 14 52.6713 13.9627 52.3913 13.888C52.1206 13.804 51.9013 13.6827 51.7333 13.524C51.5653 13.3653 51.4439 13.16 51.3693 12.908C51.3039 12.656 51.2713 12.3573 51.2713 12.012V11.34C51.2713 11.0507 51.3039 10.794 51.3693 10.57C51.4439 10.3367 51.5653 10.1407 51.7333 9.982C51.9013 9.82333 52.1206 9.70667 52.3913 9.632C52.6713 9.548 53.0166 9.506 53.4273 9.506H59.1253V9.24C59.1253 9.016 59.1019 8.82467 59.0553 8.666C59.0086 8.50733 58.9293 8.38133 58.8173 8.288C58.7053 8.18533 58.5513 8.11067 58.3553 8.064C58.1593 8.01733 57.9073 7.994 57.5993 7.994H51.7473C51.5793 7.994 51.4953 7.91 51.4953 7.742V6.566C51.4953 6.398 51.5793 6.314 51.7473 6.314H57.7953ZM58.7193 12.46C58.8686 12.46 58.9713 12.4273 59.0273 12.362C59.0926 12.2873 59.1253 12.1613 59.1253 11.984V10.752H54.0013C53.7119 10.752 53.5066 10.8127 53.3853 10.934C53.2733 11.046 53.2173 11.214 53.2173 11.438V11.732C53.2173 11.984 53.2733 12.1707 53.3853 12.292C53.5066 12.404 53.7119 12.46 54.0013 12.46H58.7193ZM71.4881 6.314C71.6561 6.314 71.7401 6.398 71.7401 6.566V7.686C71.7401 7.854 71.6561 7.938 71.4881 7.938H65.1741C64.8848 7.938 64.6841 7.994 64.5721 8.106C64.4601 8.20867 64.4041 8.36267 64.4041 8.568V8.778C64.4041 8.96467 64.4601 9.114 64.5721 9.226C64.6841 9.32867 64.8848 9.38 65.1741 9.38H69.8921C70.6761 9.38 71.2361 9.54333 71.5721 9.87C71.9081 10.1967 72.0761 10.6587 72.0761 11.256V12.04C72.0761 12.348 72.0388 12.6233 71.9641 12.866C71.8895 13.1087 71.7635 13.314 71.5861 13.482C71.4181 13.65 71.1941 13.7807 70.9141 13.874C70.6341 13.958 70.2888 14 69.8781 14H62.7101C62.5421 14 62.4581 13.916 62.4581 13.748V12.628C62.4581 12.46 62.5421 12.376 62.7101 12.376H69.3461C69.6355 12.376 69.8361 12.3247 69.9481 12.222C70.0695 12.1193 70.1301 11.9467 70.1301 11.704V11.326C70.1301 11.1393 70.0695 10.9947 69.9481 10.892C69.8361 10.7893 69.6355 10.738 69.3461 10.738H64.6421C63.8581 10.738 63.2981 10.5793 62.9621 10.262C62.6261 9.93533 62.4581 9.464 62.4581 8.848V8.232C62.4581 7.94267 62.4955 7.68133 62.5701 7.448C62.6448 7.20533 62.7661 7 62.9341 6.832C63.1115 6.664 63.3401 6.538 63.6201 6.454C63.9001 6.36067 64.2455 6.314 64.6561 6.314H71.4881ZM80.1284 4.2C80.3338 4.2 80.4364 4.30267 80.4364 4.508V10.094C80.4364 10.4673 80.4644 10.78 80.5204 11.032C80.5858 11.2747 80.6884 11.4707 80.8284 11.62C80.9684 11.76 81.1551 11.8627 81.3884 11.928C81.6311 11.984 81.9344 12.012 82.2984 12.012H87.9684C88.1738 12.012 88.2764 12.1147 88.2764 12.32V13.692C88.2764 13.8973 88.1738 14 87.9684 14H82.2144C81.5051 14 80.9031 13.9347 80.4084 13.804C79.9138 13.6733 79.5078 13.4633 79.1904 13.174C78.8824 12.8753 78.6538 12.4927 78.5044 12.026C78.3644 11.55 78.2944 10.976 78.2944 10.304V4.508C78.2944 4.30267 78.4018 4.2 78.6164 4.2H80.1284ZM96.5227 6.314C97.148 6.314 97.6753 6.37 98.1047 6.482C98.534 6.58467 98.8747 6.75267 99.1267 6.986C99.388 7.21 99.5747 7.504 99.6867 7.868C99.7987 8.22267 99.8547 8.652 99.8547 9.156V11.172C99.8547 11.676 99.7987 12.11 99.6867 12.474C99.5747 12.8287 99.388 13.1227 99.1267 13.356C98.8747 13.58 98.534 13.7433 98.1047 13.846C97.6753 13.9487 97.148 14 96.5227 14H92.5607C91.926 14 91.394 13.9487 90.9647 13.846C90.5447 13.7433 90.204 13.58 89.9427 13.356C89.6907 13.1227 89.5087 12.8287 89.3967 12.474C89.2847 12.11 89.2287 11.676 89.2287 11.172V9.156C89.2287 8.652 89.2847 8.22267 89.3967 7.868C89.5087 7.504 89.6907 7.21 89.9427 6.986C90.204 6.75267 90.5447 6.58467 90.9647 6.482C91.394 6.37 91.926 6.314 92.5607 6.314H96.5227ZM91.2307 10.822C91.2307 11.1207 91.254 11.368 91.3007 11.564C91.3473 11.76 91.4267 11.9187 91.5387 12.04C91.66 12.152 91.8187 12.236 92.0147 12.292C92.2107 12.3387 92.458 12.362 92.7567 12.362H96.3267C96.6347 12.362 96.8867 12.3387 97.0827 12.292C97.2787 12.236 97.4327 12.152 97.5447 12.04C97.666 11.9187 97.75 11.76 97.7967 11.564C97.8433 11.368 97.8667 11.1207 97.8667 10.822V9.492C97.8667 9.20267 97.8433 8.96 97.7967 8.764C97.75 8.568 97.666 8.40933 97.5447 8.288C97.4327 8.16667 97.2787 8.08267 97.0827 8.036C96.8867 7.98933 96.6347 7.966 96.3267 7.966H92.7567C92.458 7.966 92.2107 7.98933 92.0147 8.036C91.8187 8.08267 91.66 8.16667 91.5387 8.288C91.4267 8.40933 91.3473 8.568 91.3007 8.764C91.254 8.96 91.2307 9.20267 91.2307 9.492V10.822ZM108.719 6.314C109.344 6.314 109.872 6.37 110.301 6.482C110.73 6.58467 111.071 6.75267 111.323 6.986C111.584 7.21 111.771 7.504 111.883 7.868C111.995 8.22267 112.051 8.652 112.051 9.156V11.172C112.051 11.676 111.995 12.11 111.883 12.474C111.771 12.8287 111.584 13.1227 111.323 13.356C111.071 13.58 110.73 13.7433 110.301 13.846C109.872 13.9487 109.344 14 108.719 14H103.469V16.786C103.469 16.9913 103.366 17.094 103.161 17.094H101.789C101.574 17.094 101.467 16.9913 101.467 16.786V9.156C101.467 8.652 101.523 8.22267 101.635 7.868C101.747 7.504 101.929 7.21 102.181 6.986C102.442 6.75267 102.783 6.58467 103.203 6.482C103.632 6.37 104.164 6.314 104.799 6.314H108.719ZM103.469 12.32H108.523C108.831 12.32 109.083 12.2967 109.279 12.25C109.475 12.2033 109.629 12.1193 109.741 11.998C109.862 11.8767 109.946 11.718 109.993 11.522C110.04 11.326 110.063 11.0787 110.063 10.78V9.534C110.063 9.24467 110.04 9.002 109.993 8.806C109.946 8.60067 109.862 8.442 109.741 8.33C109.629 8.20867 109.475 8.12467 109.279 8.078C109.083 8.022 108.831 7.994 108.523 7.994H104.995C104.696 7.994 104.449 8.022 104.253 8.078C104.057 8.12467 103.898 8.20867 103.777 8.33C103.665 8.442 103.586 8.60067 103.539 8.806C103.492 9.002 103.469 9.24467 103.469 9.534V12.32ZM120.83 6.314C121.306 6.314 121.698 6.356 122.006 6.44C122.324 6.51467 122.571 6.64533 122.748 6.832C122.935 7.00933 123.066 7.24733 123.14 7.546C123.215 7.83533 123.252 8.19 123.252 8.61V9.94C123.252 10.2387 123.187 10.4487 123.056 10.57C122.926 10.682 122.725 10.738 122.454 10.738H115.384V11.074C115.384 11.5127 115.487 11.83 115.692 12.026C115.907 12.222 116.318 12.32 116.924 12.32H122.762C122.93 12.32 123.014 12.404 123.014 12.572V13.748C123.014 13.916 122.93 14 122.762 14H116.728C116.094 14 115.562 13.9487 115.132 13.846C114.712 13.7433 114.372 13.58 114.11 13.356C113.858 13.1227 113.676 12.8287 113.564 12.474C113.452 12.11 113.396 11.676 113.396 11.172V9.156C113.396 8.652 113.452 8.22267 113.564 7.868C113.676 7.504 113.858 7.21 114.11 6.986C114.372 6.75267 114.712 6.58467 115.132 6.482C115.562 6.37 116.094 6.314 116.728 6.314H120.83ZM115.384 9.492H121.054C121.213 9.492 121.292 9.41267 121.292 9.254V8.666C121.292 8.37667 121.232 8.17133 121.11 8.05C120.989 7.92867 120.765 7.868 120.438 7.868H116.924C116.318 7.868 115.907 7.966 115.692 8.162C115.487 8.34867 115.384 8.666 115.384 9.114V9.492ZM133.613 6.314C133.781 6.314 133.865 6.398 133.865 6.566V7.686C133.865 7.854 133.781 7.938 133.613 7.938H127.299C127.01 7.938 126.809 7.994 126.697 8.106C126.585 8.20867 126.529 8.36267 126.529 8.568V8.778C126.529 8.96467 126.585 9.114 126.697 9.226C126.809 9.32867 127.01 9.38 127.299 9.38H132.017C132.801 9.38 133.361 9.54333 133.697 9.87C134.033 10.1967 134.201 10.6587 134.201 11.256V12.04C134.201 12.348 134.164 12.6233 134.089 12.866C134.014 13.1087 133.888 13.314 133.711 13.482C133.543 13.65 133.319 13.7807 133.039 13.874C132.759 13.958 132.414 14 132.003 14H124.835C124.667 14 124.583 13.916 124.583 13.748V12.628C124.583 12.46 124.667 12.376 124.835 12.376H131.471C131.76 12.376 131.961 12.3247 132.073 12.222C132.194 12.1193 132.255 11.9467 132.255 11.704V11.326C132.255 11.1393 132.194 10.9947 132.073 10.892C131.961 10.7893 131.76 10.738 131.471 10.738H126.767C125.983 10.738 125.423 10.5793 125.087 10.262C124.751 9.93533 124.583 9.464 124.583 8.848V8.232C124.583 7.94267 124.62 7.68133 124.695 7.448C124.77 7.20533 124.891 7 125.059 6.832C125.236 6.664 125.465 6.538 125.745 6.454C126.025 6.36067 126.37 6.314 126.781 6.314H133.613Z" fill="url(#paint4_linear_141_352)"/>
<path d="M44.2865 22.412V20.264C44.2865 20.088 44.3745 20 44.5505 20H45.7265C45.9025 20 45.9905 20.088 45.9905 20.264V26.576C45.9905 27.008 45.9425 27.38 45.8465 27.692C45.7505 27.996 45.5905 28.248 45.3665 28.448C45.1505 28.64 44.8585 28.78 44.4905 28.868C44.1225 28.956 43.6705 29 43.1345 29H39.7745C39.2305 29 38.7745 28.956 38.4065 28.868C38.0465 28.78 37.7545 28.64 37.5305 28.448C37.3145 28.248 37.1585 27.996 37.0625 27.692C36.9665 27.38 36.9185 27.008 36.9185 26.576V24.848C36.9185 24.416 36.9665 24.048 37.0625 23.744C37.1585 23.432 37.3145 23.18 37.5305 22.988C37.7545 22.788 38.0465 22.644 38.4065 22.556C38.7745 22.46 39.2305 22.412 39.7745 22.412H44.2865ZM42.9665 27.56C43.2305 27.56 43.4465 27.54 43.6145 27.5C43.7825 27.452 43.9145 27.38 44.0105 27.284C44.1145 27.18 44.1865 27.044 44.2265 26.876C44.2665 26.708 44.2865 26.496 44.2865 26.24V23.852H39.9425C39.6865 23.852 39.4745 23.876 39.3065 23.924C39.1385 23.964 39.0025 24.036 38.8985 24.14C38.8025 24.236 38.7345 24.372 38.6945 24.548C38.6545 24.716 38.6345 24.924 38.6345 25.172V26.24C38.6345 26.496 38.6545 26.708 38.6945 26.876C38.7345 27.044 38.8025 27.18 38.8985 27.284C39.0025 27.38 39.1385 27.452 39.3065 27.5C39.4745 27.54 39.6865 27.56 39.9425 27.56H42.9665ZM53.5876 22.412C53.9956 22.412 54.3316 22.448 54.5956 22.52C54.8676 22.584 55.0796 22.696 55.2316 22.856C55.3916 23.008 55.5036 23.212 55.5676 23.468C55.6316 23.716 55.6636 24.02 55.6636 24.38V25.52C55.6636 25.776 55.6076 25.956 55.4956 26.06C55.3836 26.156 55.2116 26.204 54.9796 26.204H48.9196V26.492C48.9196 26.868 49.0076 27.14 49.1836 27.308C49.3676 27.476 49.7196 27.56 50.2396 27.56H55.2436C55.3876 27.56 55.4596 27.632 55.4596 27.776V28.784C55.4596 28.928 55.3876 29 55.2436 29H50.0716C49.5276 29 49.0716 28.956 48.7036 28.868C48.3436 28.78 48.0516 28.64 47.8276 28.448C47.6116 28.248 47.4556 27.996 47.3596 27.692C47.2636 27.38 47.2156 27.008 47.2156 26.576V24.848C47.2156 24.416 47.2636 24.048 47.3596 23.744C47.4556 23.432 47.6116 23.18 47.8276 22.988C48.0516 22.788 48.3436 22.644 48.7036 22.556C49.0716 22.46 49.5276 22.412 50.0716 22.412H53.5876ZM48.9196 25.136H53.7796C53.9156 25.136 53.9836 25.068 53.9836 24.932V24.428C53.9836 24.18 53.9316 24.004 53.8276 23.9C53.7236 23.796 53.5316 23.744 53.2516 23.744H50.2396C49.7196 23.744 49.3676 23.828 49.1836 23.996C49.0076 24.156 48.9196 24.428 48.9196 24.812V25.136ZM57.7566 22.412C57.8926 22.412 57.9886 22.468 58.0446 22.58L60.8646 27.536C60.8966 27.584 60.9406 27.608 60.9966 27.608H61.0446C61.1006 27.608 61.1446 27.584 61.1766 27.536L64.0086 22.58C64.0406 22.524 64.0766 22.484 64.1166 22.46C64.1566 22.428 64.2166 22.412 64.2966 22.412H65.6286C65.7166 22.412 65.7726 22.444 65.7966 22.508C65.8286 22.564 65.8246 22.632 65.7846 22.712L62.4966 28.46C62.3846 28.66 62.2566 28.8 62.1126 28.88C61.9686 28.96 61.7606 29 61.4886 29H60.5046C60.2406 29 60.0366 28.96 59.8926 28.88C59.7486 28.8 59.6206 28.66 59.5086 28.46L56.2206 22.712C56.1806 22.632 56.1726 22.564 56.1966 22.508C56.2286 22.444 56.2886 22.412 56.3766 22.412H57.7566ZM72.1853 22.412C72.5933 22.412 72.9293 22.448 73.1933 22.52C73.4653 22.584 73.6773 22.696 73.8293 22.856C73.9893 23.008 74.1013 23.212 74.1653 23.468C74.2293 23.716 74.2613 24.02 74.2613 24.38V25.52C74.2613 25.776 74.2053 25.956 74.0933 26.06C73.9813 26.156 73.8093 26.204 73.5773 26.204H67.5173V26.492C67.5173 26.868 67.6053 27.14 67.7813 27.308C67.9653 27.476 68.3173 27.56 68.8373 27.56H73.8413C73.9853 27.56 74.0573 27.632 74.0573 27.776V28.784C74.0573 28.928 73.9853 29 73.8413 29H68.6693C68.1253 29 67.6693 28.956 67.3013 28.868C66.9413 28.78 66.6493 28.64 66.4253 28.448C66.2093 28.248 66.0533 27.996 65.9573 27.692C65.8613 27.38 65.8133 27.008 65.8133 26.576V24.848C65.8133 24.416 65.8613 24.048 65.9573 23.744C66.0533 23.432 66.2093 23.18 66.4253 22.988C66.6493 22.788 66.9413 22.644 67.3013 22.556C67.6693 22.46 68.1253 22.412 68.6693 22.412H72.1853ZM67.5173 25.136H72.3773C72.5133 25.136 72.5813 25.068 72.5813 24.932V24.428C72.5813 24.18 72.5293 24.004 72.4253 23.9C72.3213 23.796 72.1293 23.744 71.8493 23.744H68.8373C68.3173 23.744 67.9653 23.828 67.7813 23.996C67.6053 24.156 67.5173 24.428 67.5173 24.812V25.136ZM76.998 20C77.174 20 77.262 20.088 77.262 20.264V28.736C77.262 28.912 77.174 29 76.998 29H75.822C75.646 29 75.558 28.912 75.558 28.736V20.264C75.558 20.088 75.646 20 75.822 20H76.998ZM84.9244 22.412C85.4604 22.412 85.9124 22.46 86.2804 22.556C86.6484 22.644 86.9404 22.788 87.1564 22.988C87.3804 23.18 87.5404 23.432 87.6364 23.744C87.7324 24.048 87.7804 24.416 87.7804 24.848V26.576C87.7804 27.008 87.7324 27.38 87.6364 27.692C87.5404 27.996 87.3804 28.248 87.1564 28.448C86.9404 28.64 86.6484 28.78 86.2804 28.868C85.9124 28.956 85.4604 29 84.9244 29H81.5284C80.9844 29 80.5284 28.956 80.1604 28.868C79.8004 28.78 79.5084 28.64 79.2844 28.448C79.0684 28.248 78.9124 27.996 78.8164 27.692C78.7204 27.38 78.6724 27.008 78.6724 26.576V24.848C78.6724 24.416 78.7204 24.048 78.8164 23.744C78.9124 23.432 79.0684 23.18 79.2844 22.988C79.5084 22.788 79.8004 22.644 80.1604 22.556C80.5284 22.46 80.9844 22.412 81.5284 22.412H84.9244ZM80.3884 26.276C80.3884 26.532 80.4084 26.744 80.4484 26.912C80.4884 27.08 80.5564 27.216 80.6524 27.32C80.7564 27.416 80.8924 27.488 81.0604 27.536C81.2284 27.576 81.4404 27.596 81.6964 27.596H84.7564C85.0204 27.596 85.2364 27.576 85.4044 27.536C85.5724 27.488 85.7044 27.416 85.8004 27.32C85.9044 27.216 85.9764 27.08 86.0164 26.912C86.0564 26.744 86.0764 26.532 86.0764 26.276V25.136C86.0764 24.888 86.0564 24.68 86.0164 24.512C85.9764 24.344 85.9044 24.208 85.8004 24.104C85.7044 24 85.5724 23.928 85.4044 23.888C85.2364 23.848 85.0204 23.828 84.7564 23.828H81.6964C81.4404 23.828 81.2284 23.848 81.0604 23.888C80.8924 23.928 80.7564 24 80.6524 24.104C80.5564 24.208 80.4884 24.344 80.4484 24.512C80.4084 24.68 80.3884 24.888 80.3884 25.136V26.276ZM95.3784 22.412C95.9144 22.412 96.3664 22.46 96.7344 22.556C97.1024 22.644 97.3944 22.788 97.6104 22.988C97.8344 23.18 97.9944 23.432 98.0904 23.744C98.1864 24.048 98.2344 24.416 98.2344 24.848V26.576C98.2344 27.008 98.1864 27.38 98.0904 27.692C97.9944 27.996 97.8344 28.248 97.6104 28.448C97.3944 28.64 97.1024 28.78 96.7344 28.868C96.3664 28.956 95.9144 29 95.3784 29H90.8784V31.388C90.8784 31.564 90.7904 31.652 90.6144 31.652H89.4384C89.2544 31.652 89.1624 31.564 89.1624 31.388V24.848C89.1624 24.416 89.2104 24.048 89.3064 23.744C89.4024 23.432 89.5584 23.18 89.7744 22.988C89.9984 22.788 90.2904 22.644 90.6504 22.556C91.0184 22.46 91.4744 22.412 92.0184 22.412H95.3784ZM90.8784 27.56H95.2104C95.4744 27.56 95.6904 27.54 95.8584 27.5C96.0264 27.46 96.1584 27.388 96.2544 27.284C96.3584 27.18 96.4304 27.044 96.4704 26.876C96.5104 26.708 96.5304 26.496 96.5304 26.24V25.172C96.5304 24.924 96.5104 24.716 96.4704 24.548C96.4304 24.372 96.3584 24.236 96.2544 24.14C96.1584 24.036 96.0264 23.964 95.8584 23.924C95.6904 23.876 95.4744 23.852 95.2104 23.852H92.1864C91.9304 23.852 91.7184 23.876 91.5504 23.924C91.3824 23.964 91.2464 24.036 91.1424 24.14C91.0464 24.236 90.9784 24.372 90.9384 24.548C90.8984 24.716 90.8784 24.924 90.8784 25.172V27.56ZM105.76 22.412C106.168 22.412 106.504 22.448 106.768 22.52C107.04 22.584 107.252 22.696 107.404 22.856C107.564 23.008 107.676 23.212 107.74 23.468C107.804 23.716 107.836 24.02 107.836 24.38V25.52C107.836 25.776 107.78 25.956 107.668 26.06C107.556 26.156 107.384 26.204 107.152 26.204H101.092V26.492C101.092 26.868 101.18 27.14 101.356 27.308C101.54 27.476 101.892 27.56 102.412 27.56H107.416C107.56 27.56 107.632 27.632 107.632 27.776V28.784C107.632 28.928 107.56 29 107.416 29H102.244C101.7 29 101.244 28.956 100.876 28.868C100.516 28.78 100.224 28.64 99.9995 28.448C99.7835 28.248 99.6275 27.996 99.5315 27.692C99.4355 27.38 99.3875 27.008 99.3875 26.576V24.848C99.3875 24.416 99.4355 24.048 99.5315 23.744C99.6275 23.432 99.7835 23.18 99.9995 22.988C100.224 22.788 100.516 22.644 100.876 22.556C101.244 22.46 101.7 22.412 102.244 22.412H105.76ZM101.092 25.136H105.952C106.088 25.136 106.156 25.068 106.156 24.932V24.428C106.156 24.18 106.104 24.004 106 23.9C105.896 23.796 105.704 23.744 105.424 23.744H102.412C101.892 23.744 101.54 23.828 101.356 23.996C101.18 24.156 101.092 24.428 101.092 24.812V25.136ZM115.3 22.412C115.444 22.412 115.516 22.484 115.516 22.628V23.636C115.516 23.78 115.444 23.852 115.3 23.852H112.108C111.852 23.852 111.64 23.876 111.472 23.924C111.304 23.964 111.168 24.036 111.064 24.14C110.968 24.236 110.9 24.372 110.86 24.548C110.82 24.716 110.8 24.924 110.8 25.172V28.736C110.8 28.912 110.712 29 110.536 29H109.36C109.176 29 109.084 28.912 109.084 28.736V24.848C109.084 24.416 109.132 24.048 109.228 23.744C109.324 23.432 109.48 23.18 109.696 22.988C109.92 22.788 110.212 22.644 110.572 22.556C110.94 22.46 111.396 22.412 111.94 22.412H115.3Z" fill="url(#paint5_linear_141_352)"/>
</mask>
<g mask="url(#mask0_141_352)">
<rect x="-2" y="-4" width="156" height="40" fill="url(#paint6_linear_141_352)"/>
</g>
<defs>
<linearGradient id="paint0_linear_141_352" x1="128.485" y1="-27.75" x2="159.816" y2="-9.93281" gradientUnits="userSpaceOnUse">
<stop stop-color="#0DEAFF"/>
<stop offset="1" stop-color="#AC04FF"/>
</linearGradient>
<linearGradient id="paint1_linear_141_352" x1="125.158" y1="55.25" x2="155.086" y2="43.2399" gradientUnits="userSpaceOnUse">
<stop stop-color="#0DEAFF"/>
<stop offset="1" stop-color="#AC04FF"/>
</linearGradient>
<linearGradient id="paint2_linear_141_352" x1="23.515" y1="-27.75" x2="-8.265" y2="-12.3188" gradientUnits="userSpaceOnUse">
<stop stop-color="#0DEAFF"/>
<stop offset="1" stop-color="#AC04FF"/>
</linearGradient>
<linearGradient id="paint3_linear_141_352" x1="26.8421" y1="55.25" x2="-3.08631" y2="43.2399" gradientUnits="userSpaceOnUse">
<stop stop-color="#0DEAFF"/>
<stop offset="1" stop-color="#AC04FF"/>
</linearGradient>
<linearGradient id="paint4_linear_141_352" x1="14.9971" y1="9" x2="136.997" y2="9" gradientUnits="userSpaceOnUse">
<stop stop-color="#0DEAFF"/>
<stop offset="1" stop-color="#AC04FF"/>
</linearGradient>
<linearGradient id="paint5_linear_141_352" x1="14.9971" y1="25" x2="136.997" y2="25" gradientUnits="userSpaceOnUse">
<stop stop-color="#0DEAFF"/>
<stop offset="1" stop-color="#AC04FF"/>
</linearGradient>
<linearGradient id="paint6_linear_141_352" x1="-2" y1="16" x2="154" y2="16" gradientUnits="userSpaceOnUse">
<stop stop-color="#0DEAFF"/>
<stop offset="1" stop-color="#AC04FF"/>
</linearGradient>
</defs>
</svg>
